<svg width="132" height="73" viewBox="0 0 132 73" fill="none" xmlns="http://www.w3.org/2000/svg">
<g clip-path="url(#clip0_5_30594)">
<path d="M90.1048 51.3263C88.2379 49.7143 86.0087 49.2452 83.5927 49.5741C82.0607 49.7844 80.6606 50.4044 79.2988 51.0891C76.5205 52.4855 73.7531 53.9034 70.9857 55.3106C70.519 55.4723 70.2829 55.413 70.5464 54.8739C73.3468 52.1297 76.1471 49.3908 78.9474 46.6466C79.9632 45.7408 80.9735 44.8296 81.9948 43.9293C82.7471 43.2607 82.6098 42.7432 81.7532 42.3172C79.9248 40.716 77.9316 40.7861 75.9165 41.859C73.7586 43.0073 71.9576 44.6302 70.1456 46.2314C69.9754 46.3662 69.8106 46.3716 69.6789 46.1937C69.602 46.0859 69.6404 45.9672 69.7448 45.8594C70.2829 44.8135 70.8155 43.7675 71.3536 42.7162C71.7764 42.3712 71.9081 41.8482 72.1882 41.4115C72.7428 40.565 72.2376 40.22 71.4963 40.0744C69.5965 39.7024 67.812 39.9342 66.2636 41.1904C65.2917 41.983 64.4461 42.8941 63.7323 43.9131C62.0082 46.377 60.608 49.0134 59.3616 51.7307C58.5379 53.0678 57.7143 54.4048 56.9017 55.7473C56.6106 56.2218 56.2592 56.2864 55.7321 56.1031C55.227 55.9252 54.8975 55.6988 54.9854 55.1381C55.0458 54.7499 55.1391 54.3725 55.216 53.9843C55.8749 50.7225 56.5393 47.4553 57.1872 44.1935C57.3903 43.1637 57.1707 42.8941 56.1659 42.7755C55.3423 42.6785 54.5626 42.8672 53.8542 43.2392C52.2893 44.0587 51.4053 45.4065 51.01 47.0725C50.5378 49.0404 50.071 51.0136 49.6537 52.9923C49.4561 53.9358 48.9948 54.1784 48.001 54.1137C43.169 53.8064 38.6171 52.0326 33.3075 51.7361C36.8875 49.407 40.1546 47.5685 43.4985 45.854C44.8547 45.1585 46.2165 44.4684 47.5123 43.6813C50.4938 41.8644 51.4932 39.0608 51.2955 35.7828C51.1418 33.2866 50.8398 33.168 48.6379 34.2732C43.7291 36.7425 38.8972 39.3627 33.7632 41.3737C32.9616 41.6864 32.1819 42.0261 31.2649 41.8967C28.0802 41.4384 24.89 41.5678 21.7108 41.9506C17.4993 42.4574 13.5075 43.595 10.0592 46.1452C8.99949 46.9269 7.93427 47.7248 7.41813 48.9972C5.93011 51.5366 3.4757 56.8633 3.4757 56.8633L2.70698 58.4053C2.60814 58.4862 0.993831 61.7588 0.263548 62.9934C-0.258082 63.8722 0.054896 64.2819 0.900487 64.6C1.58135 64.8588 2.22378 65.2039 2.89367 65.4896C15.7862 71.0105 29.3431 73.1023 43.3173 72.9945C43.9268 72.9891 44.4869 72.822 45.0689 72.6548C52.0093 70.6492 58.9333 68.5574 65.9176 66.7189C70.1401 65.6082 74.0221 64.0232 77.5747 61.4622C81.594 58.567 85.8329 55.9737 89.9621 53.2241C91.0822 52.4801 91.1097 52.1943 90.1048 51.3263ZM72.3419 45.5144C73.2864 44.7973 74.1869 44.0209 75.1368 43.3147C77.0421 41.9021 79.0463 41.433 81.2042 42.7917C81.3744 43.32 80.9681 43.5734 80.6715 43.8969C79.9358 44.6787 79.0188 45.2933 78.4148 46.1991C74.7579 49.3207 71.392 52.7443 67.9657 56.0924C66.582 57.4456 64.9622 58.0926 62.8208 58.7989C63.7433 57.0736 64.6053 55.715 65.2258 54.2485C66.7522 50.647 69.2506 47.8542 72.3419 45.5144ZM63.7817 60.0065C62.3211 61.4245 60.8606 62.837 59.411 64.2658C58.8729 64.7941 58.472 64.8427 58.0053 64.1526C57.4617 63.3492 56.8138 62.616 56.122 61.7372C58.7466 60.977 61.2449 60.2545 63.7433 59.5321C63.875 59.2841 64.0617 59.8394 63.7817 60.0065ZM61.7885 58.8474C60.8386 58.6964 60.284 58.1627 59.3945 57.6828C61.3218 55.8929 62.8318 53.9627 64.9018 52.5933C64.9073 52.5664 64.9183 52.5448 64.9293 52.5178L64.9622 52.5502C64.9403 52.5664 64.9238 52.5771 64.9018 52.5933C64.177 54.8146 62.7549 56.68 61.7885 58.8474ZM57.7692 56.06C58.472 54.8092 59.3451 53.6446 59.8393 52.286C61.2449 50.3235 62.1839 48.1022 63.4413 46.0589C64.2978 44.6679 65.1599 43.2931 66.4283 42.2202C67.51 41.309 68.718 40.7375 70.2005 40.7861C71.101 40.813 71.1175 41.2983 70.9637 41.9398C69.9095 43.8214 68.8497 45.7031 67.812 47.5901C67.4002 48.3395 66.9993 49.0835 66.3679 49.6819C63.9849 51.9517 61.6073 54.2377 59.2298 56.5129C59.087 56.6477 58.9388 56.7771 58.796 56.9172C58.4281 57.2946 58.0877 57.1059 57.7418 56.8741C57.3025 56.583 57.6319 56.308 57.7692 56.06ZM60.5586 59.3865C58.9497 60.2168 57.3684 60.4109 55.8364 60.7128C54.8042 60.9177 54.1123 60.1305 54.1837 59.0684C54.1947 58.939 54.2166 58.8096 54.2496 58.6802C54.3869 58.1141 54.5296 57.548 54.7273 56.7663C56.8687 57.3432 58.6313 58.3406 60.5586 59.3865ZM50.8288 51.8439C51.2131 50.2588 51.5206 48.6522 51.9599 47.0833C52.5858 44.835 53.7334 43.9293 56.3032 43.7298C55.787 46.3554 55.3148 48.7762 54.8426 51.1969C54.623 52.2806 54.3594 53.3589 54.1947 54.4534C54.0739 55.2621 53.6785 55.3591 52.9537 55.2082C50.1534 54.6151 50.1534 54.6313 50.8288 51.8439ZM52.5255 55.9737C53.8433 56.3673 53.8597 56.3889 53.5358 57.726C53.4479 58.0764 53.5303 58.5131 53.0745 58.8096C51.4547 57.7691 47.4409 55.4184 47.1225 55.068C47.8363 54.7014 51.3889 55.6341 52.5255 55.9737ZM41.6426 54.4372C42.2356 54.4534 42.8616 54.4534 43.4106 54.6475C47.1938 55.9684 50.6421 57.8554 53.4754 60.8153C45.2281 60.8692 37.508 58.5724 29.3815 56.1517C31.0782 55.2836 32.5333 55.2243 33.9115 54.9979C36.4647 54.5828 39.0454 54.3617 41.6426 54.4372ZM34.4661 52.7173C35.674 53.0246 38.9521 53.1325 39.0125 53.5746C39.0344 53.7309 32.4509 54.4102 29.2992 54.9602C30.8311 53.2079 32.2477 52.1512 34.4661 52.7173ZM50.0491 34.6668C51.1308 38.8559 48.9399 42.8079 44.9426 44.1288C44.4484 44.2905 44.0476 44.1449 43.5973 44.0371C40.7091 43.32 37.81 42.6839 34.8504 42.2471C35.4324 41.7565 47.7923 35.5887 50.0491 34.6668ZM36.7667 43.4602C38.7599 43.9347 40.786 44.2905 42.8725 44.7164C37.6837 49.2183 17.3017 51.8439 10.482 48.8031C16.1705 47.4337 21.6394 46.3608 26.9546 44.6949C27.586 44.4954 28.2614 44.3768 28.8434 44.091C31.4131 42.8186 34.0433 42.8079 36.7667 43.4602ZM29.2003 42.8833C22.9737 45.261 16.4451 46.5441 9.75174 47.989C12.0634 44.4684 21.4857 41.7781 29.2003 42.8833ZM3.34391 58.8096C3.44275 58.7342 6.66039 52.5071 7.82445 49.7898C8.48884 49.5957 9.14774 49.7305 9.79566 49.8706C17.5268 51.5474 25.2195 51.3479 32.8902 49.4986C33.2745 49.407 35.8937 48.539 35.9705 48.7169C36.1682 49.2021 31.6712 51.7469 29.6451 51.9194C23.6436 52.4316 17.697 53.3966 11.9591 55.2998C9.07636 56.2595 6.22112 57.3 3.82162 59.2302C3.45922 59.311 3.28901 59.1817 3.34391 58.8096ZM2.22927 63.9261C1.10914 63.6565 1.05972 63.4624 1.70764 62.4758C2.6301 61.074 3.93693 60.0712 5.34807 59.1978C8.12095 57.478 11.1684 56.3943 14.3036 55.5155C19.1411 54.1514 26.4604 52.8845 30.013 52.9114C27.9429 54.572 26.713 56.4482 25.1261 57.9848C18.6689 64.2388 10.9597 66.0342 2.22927 63.9261ZM44.8602 71.5442C44.1354 71.8785 43.4271 72.1534 42.587 72.1588C30.7213 72.2074 19.1631 70.4659 7.96172 66.5787C7.35773 66.3684 6.68235 66.2498 5.9356 65.5112C9.53759 65.7646 12.8321 65.5651 16.0333 64.5515C20.113 63.263 23.6326 61.101 26.4165 57.9039C27.284 56.9065 28.0088 56.707 29.2992 57.1006C35.07 58.8528 40.8849 60.4648 46.8754 61.3544C48.9729 61.6671 51.0868 62.0661 53.2173 61.8666C54.4912 61.748 55.3917 62.093 56.089 63.139C56.5942 63.8938 57.1927 64.5893 57.6923 65.2362C57.5002 65.9209 56.9566 65.9587 56.5667 66.142C52.6737 67.9535 48.7587 69.7381 44.8602 71.5442ZM88.2654 53.2672C83.2028 56.6261 78.1238 59.958 73.0612 63.3115C72.2815 63.8291 71.4634 64.2119 70.5574 64.4706C64.8854 66.0773 59.2243 67.7055 53.5577 69.3229C53.2448 69.4146 50.6366 70.2071 50.2028 70.164C50.1973 70.1694 50.1973 70.1748 50.1918 70.1856L50.1754 70.164C50.1864 70.164 50.1918 70.164 50.2028 70.1694C50.4444 69.6788 52.789 68.8754 52.9098 68.8323C57.7198 67.2365 61.3383 64.0178 64.6822 60.4432C66.1867 58.8312 67.9712 57.6936 69.9973 56.7717C73.2424 55.289 76.3832 53.58 79.5624 51.9571C81.5336 50.9489 83.5652 50.2373 85.8494 50.4745C87.2825 50.6254 88.5509 51.0621 89.5832 52.1674C89.3032 52.7497 88.7266 52.9599 88.2654 53.2672Z" fill="white"/>
<path d="M118.756 18.1691C116.757 10.2869 109.004 4.77681 100.73 5.59092C92.4823 6.40502 85.8823 13.1228 85.4705 21.2692C85.2564 25.5177 86.7609 29.7661 89.5941 32.974C91.0382 34.6076 92.7624 35.7829 94.6457 36.8666C96.6114 37.9934 98.2203 39.6486 99.3349 41.5949C99.884 42.56 100.307 43.5843 100.592 44.6519C100.839 45.5522 101.328 46.307 102.311 46.5389C103.085 46.7222 103.997 46.3771 104.749 46.1992C107.253 45.6007 109.757 45.0077 112.26 44.4092C113.364 44.1451 114.407 43.6652 114.55 42.3928C114.599 41.9346 114.468 41.514 114.38 41.0665C114.248 40.4196 114.171 39.7618 114.138 39.0987C114.083 37.8856 114.199 36.6725 114.49 35.4972C114.781 34.3111 115.242 33.1789 115.862 32.1222C116.499 31.0439 117.224 30.0411 117.746 28.8981C118.751 26.6822 119.278 24.2722 119.239 21.8461C119.217 20.6061 119.042 19.3714 118.756 18.1691C118.597 17.4952 117.537 17.7809 117.696 18.4549C118.256 20.8002 118.295 23.2371 117.735 25.5877C117.466 26.7199 117.076 27.8252 116.554 28.8657C116.049 29.8847 115.363 30.7905 114.803 31.7771C113.704 33.7072 113.106 35.8908 113.035 38.1013C113.002 39.1903 113.1 40.2902 113.32 41.3577C113.485 42.1664 113.551 42.9374 112.573 43.2285C110.619 43.8108 108.576 44.1828 106.588 44.6572C105.562 44.8999 104.535 45.1479 103.502 45.3905C103.288 45.4444 103.052 45.5199 102.827 45.5199C101.669 45.5253 101.603 44.0965 101.312 43.2986C100.636 41.4386 99.582 39.7133 98.1983 38.2792C97.5065 37.5621 96.7322 36.9259 95.8976 36.3706C95.0575 35.8153 94.1406 35.384 93.306 34.8125C89.8687 32.4726 87.5296 28.8226 86.7883 24.7898C85.3827 17.1825 90.1872 9.52127 97.7096 7.26765C105.232 5.01942 113.485 8.66404 116.741 15.6945C117.153 16.5787 117.46 17.506 117.696 18.4495C117.867 19.1288 118.926 18.8431 118.756 18.1691Z" fill="white"/>
<path d="M115.654 47.9783C115.291 46.8084 114.215 46.2045 113.007 46.4202C113.106 46.7652 113.199 47.1157 113.298 47.4607C114.319 47.1534 115.033 46.2638 114.94 45.1855C114.852 44.1881 114.028 43.3632 113.013 43.2554C112.151 43.1638 111.135 43.5627 110.311 43.7622C108.027 44.3067 105.682 44.7542 103.426 45.4012C102.294 45.7247 101.537 46.8407 101.839 47.9999C102.146 49.1806 103.316 49.7683 104.485 49.558C104.386 49.2129 104.293 48.8625 104.194 48.5174C103.063 48.8571 102.305 49.9462 102.607 51.1161C102.915 52.2968 104.085 52.8845 105.254 52.6742C105.155 52.3292 105.062 51.9787 104.963 51.6337C103.942 51.941 103.228 52.8306 103.321 53.9089C103.409 54.9063 104.233 55.7312 105.249 55.839C106.111 55.9307 107.126 55.5317 107.95 55.3322C110.234 54.7877 112.579 54.3402 114.836 53.6932C115.967 53.3697 116.724 52.2537 116.422 51.0945C116.115 49.9138 114.945 49.3262 113.776 49.5364C113.875 49.8815 113.968 50.2319 114.067 50.577C115.258 50.2265 115.879 49.1698 115.654 47.9783C115.527 47.299 114.468 47.5847 114.594 48.264C114.704 48.8679 114.358 49.3639 113.776 49.5364C113.089 49.7413 113.381 50.701 114.067 50.577C115.077 50.3937 115.829 51.5798 115.094 52.3508C114.874 52.5772 114.594 52.6419 114.303 52.7174C113.534 52.9115 112.76 53.084 111.986 53.2727C110.048 53.7364 108.104 54.2 106.166 54.6583C105.957 54.7068 105.726 54.7877 105.507 54.7877C104.211 54.7931 104.079 53.0355 105.254 52.685C105.94 52.4801 105.649 51.5205 104.963 51.6445C103.574 51.8925 103.151 49.9624 104.485 49.5634C105.172 49.3585 104.881 48.3988 104.194 48.5228C103.184 48.7061 102.432 47.52 103.168 46.7491C103.387 46.5226 103.667 46.4579 103.958 46.3824C104.727 46.1883 105.501 46.0158 106.275 45.8271C108.214 45.3635 110.157 44.8998 112.096 44.4415C112.304 44.393 112.535 44.3121 112.755 44.3121C114.05 44.3067 114.182 46.0643 113.007 46.4148C112.321 46.6197 112.612 47.5793 113.298 47.4553C113.913 47.3475 114.418 47.6872 114.594 48.2587C114.803 48.9272 115.862 48.6468 115.654 47.9783Z" fill="white"/>
<path d="M106.001 49.2022C107.692 48.7978 109.383 48.3935 111.074 47.9945C111.31 47.9352 111.552 47.8813 111.788 47.822C112.475 47.6602 112.183 46.6197 111.497 46.7814C109.806 47.1858 108.115 47.5901 106.424 47.9891C106.188 48.0484 105.946 48.1023 105.71 48.1616C105.018 48.3288 105.309 49.3693 106.001 49.2022Z" fill="white"/>
<path d="M106.77 52.3238C108.461 51.9194 110.152 51.515 111.843 51.1161C112.079 51.0568 112.321 51.0029 112.557 50.9435C113.243 50.7818 112.952 49.7413 112.266 49.903C110.575 50.3074 108.884 50.7117 107.192 51.1107C106.956 51.17 106.715 51.2239 106.479 51.2832C105.792 51.445 106.083 52.4855 106.77 52.3238Z" fill="white"/>
<path d="M112.227 54.7662C112.332 55.2191 112.255 55.6774 111.997 56.0871C111.761 56.4591 111.376 56.7287 110.915 56.8365C110.476 56.939 110.009 56.8635 109.619 56.637C109.202 56.3944 108.927 56.017 108.807 55.548C108.631 54.874 107.571 55.1598 107.747 55.8337C108.049 56.9821 109.032 57.7962 110.218 57.9418C111.36 58.0766 112.546 57.4404 113.057 56.4268C113.364 55.8122 113.435 55.1436 113.282 54.4805C113.216 54.1947 112.881 54.0276 112.606 54.1031C112.315 54.1785 112.162 54.4805 112.227 54.7662Z" fill="white"/>
<path d="M108.505 44.7326C107.346 40.0421 106.188 35.3515 105.023 30.661C104.859 29.9978 104.694 29.3347 104.529 28.6661C104.365 27.9922 103.305 28.278 103.47 28.9519C104.628 33.6424 105.787 38.333 106.951 43.0235C107.115 43.6867 107.28 44.3498 107.445 45.0184C107.615 45.6923 108.675 45.4065 108.505 44.7326Z" fill="white"/>
<path d="M92.7184 19.8621C94.2998 22.9191 95.8812 25.9706 97.4625 29.0275C97.6931 29.475 97.9237 29.9225 98.1544 30.3646C98.4069 30.8498 99.1811 30.6072 99.1757 30.095C99.1537 26.6661 99.1372 23.2425 99.1153 19.8136C99.1098 19.3122 99.1098 18.8108 99.1043 18.3094C98.7639 18.401 98.4234 18.4927 98.083 18.5789C99.6643 21.6359 101.246 24.6874 102.827 27.7444C103.058 28.1919 103.288 28.6394 103.519 29.0815C103.771 29.5667 104.546 29.3241 104.54 28.8119C104.518 25.3829 104.496 21.9594 104.48 18.5304C104.474 18.029 104.474 17.5276 104.469 17.0262C104.128 17.1179 103.788 17.2095 103.448 17.2958C105.029 20.3527 106.61 23.4043 108.192 26.4612C108.422 26.9087 108.653 27.3562 108.883 27.7983C109.136 28.2835 109.91 28.0409 109.905 27.5287C109.883 24.0998 109.866 20.6762 109.844 17.2473C109.839 16.7459 109.839 16.2445 109.833 15.7431C109.828 15.0476 108.73 15.0476 108.735 15.7431C108.757 19.172 108.774 22.5956 108.796 26.0245C108.801 26.5259 108.801 27.0273 108.807 27.5287C109.147 27.4371 109.487 27.3454 109.828 27.2592C108.247 24.2022 106.665 21.1507 105.084 18.0937C104.853 17.6462 104.623 17.1987 104.392 16.7566C104.139 16.2714 103.365 16.514 103.371 17.0262C103.393 20.4552 103.415 23.8787 103.431 27.3077C103.437 27.8091 103.437 28.3105 103.442 28.8119C103.782 28.7202 104.123 28.6286 104.463 28.5423C102.882 25.4854 101.301 22.4338 99.7193 19.3769C99.4886 18.9294 99.258 18.4819 99.0274 18.0398C98.7748 17.5546 98.0006 17.7972 98.0061 18.3094C98.0281 21.7383 98.0445 25.1619 98.0665 28.5908C98.072 29.0922 98.072 29.5936 98.0775 30.095C98.4179 30.0034 98.7584 29.9117 99.0988 29.8255C97.5174 26.7685 95.9361 23.717 94.3547 20.66C94.1241 20.2126 93.8935 19.7651 93.6629 19.323C93.3444 18.6976 92.4 19.2421 92.7184 19.8621Z" fill="white"/>
<path d="M78.2171 0.776342C80.0016 3.18631 81.7862 5.59089 83.5707 8.00086C83.8233 8.34052 84.0759 8.68557 84.3284 9.02524C84.7403 9.58055 85.6957 9.04141 85.2784 8.4807C83.4938 6.07073 81.7093 3.66615 79.9248 1.25618C79.6722 0.916519 79.4196 0.571467 79.167 0.231807C78.7552 -0.323511 77.7998 0.215633 78.2171 0.776342Z" fill="white"/>
<path d="M66.291 10.2491C71.2383 11.6078 76.1855 12.961 81.1328 14.3197C81.8356 14.5137 82.5329 14.7024 83.2357 14.8965C83.9166 15.0852 84.2076 14.0447 83.5268 13.856C78.5795 12.4973 73.6323 11.1441 68.685 9.78546C67.9822 9.59137 67.2848 9.40267 66.582 9.20857C65.9012 9.02527 65.6101 10.0658 66.291 10.2491Z" fill="white"/>
<path d="M72.1827 23.8571C75.016 22.8004 77.8493 21.7383 80.688 20.6816C81.0889 20.5306 81.4952 20.3796 81.896 20.2287C82.5494 19.9861 82.2639 18.9401 81.605 19.1881C78.7717 20.2449 75.9384 21.307 73.0997 22.3637C72.6988 22.5147 72.2925 22.6656 71.8917 22.8166C71.2383 23.0646 71.5183 24.1051 72.1827 23.8571Z" fill="white"/>
<path d="M82.9942 25.2264C82.0882 26.1591 81.1877 27.0918 80.2817 28.0299C80.1499 28.1647 80.0182 28.2995 79.8919 28.4343C79.6942 28.6392 79.6722 28.995 79.8919 29.1945C80.106 29.3886 80.4574 29.4155 80.6661 29.1945C81.5721 28.2618 82.4726 27.3291 83.3786 26.3909C83.5103 26.2562 83.6421 26.1214 83.7684 25.9866C83.9661 25.7817 83.988 25.4259 83.7684 25.2264C83.5543 25.0323 83.2083 25.0053 82.9942 25.2264Z" fill="white"/>
<path d="M124.851 32.7582C124.033 31.653 123.209 30.5477 122.391 29.4425C122.276 29.2861 122.16 29.1298 122.04 28.9734C121.864 28.7362 121.562 28.623 121.287 28.7793C121.051 28.9141 120.914 29.2807 121.09 29.518C121.908 30.6232 122.731 31.7285 123.55 32.8337C123.665 32.99 123.78 33.1464 123.901 33.3027C124.077 33.54 124.379 33.6532 124.653 33.4968C124.889 33.3621 125.027 32.9954 124.851 32.7582Z" fill="white"/>
<path d="M131.61 25.4207C129.139 24.7414 126.668 24.0674 124.197 23.3881C123.846 23.2911 123.489 23.194 123.138 23.097C122.457 22.9083 122.166 23.9488 122.847 24.1375C125.318 24.8169 127.788 25.4908 130.259 26.1701C130.611 26.2672 130.968 26.3642 131.319 26.4612C132 26.6499 132.291 25.6094 131.61 25.4207Z" fill="white"/>
<path d="M129.496 15.894C128.03 16.4385 126.57 16.9885 125.103 17.533C124.895 17.6085 124.686 17.6894 124.478 17.7648C124.203 17.8673 124.011 18.1261 124.093 18.428C124.165 18.6868 124.489 18.9078 124.769 18.8054C126.235 18.2609 127.695 17.7109 129.161 17.1664C129.37 17.0909 129.578 17.01 129.787 16.9346C130.062 16.8321 130.254 16.5733 130.172 16.2714C130.095 16.0126 129.771 15.7916 129.496 15.894Z" fill="white"/>
</g>
<defs>
<clipPath id="clip0_5_30594">
<rect width="132" height="73" fill="white"/>
</clipPath>
</defs>
</svg>
